<?xml version="1.0" encoding="UTF-8" standalone="no"?>
<!-- Created with Inkscape (http://www.inkscape.org/) -->
<svg xmlns:dc="http://purl.org/dc/elements/1.1/" xmlns:cc="http://web.resource.org/cc/" xmlns:rdf="http://www.w3.org/1999/02/22-rdf-syntax-ns#" xmlns:svg="http://www.w3.org/2000/svg" xmlns="http://www.w3.org/2000/svg" xmlns:xlink="http://www.w3.org/1999/xlink" xmlns:sodipodi="http://inkscape.sourceforge.net/DTD/sodipodi-0.dtd" xmlns:inkscape="http://www.inkscape.org/namespaces/inkscape" width="100.00000pt" height="85.000000pt" id="svg2" sodipodi:version="0.32" inkscape:version="0.40+cvs" version="1.0" sodipodi:docbase="D:\MONTY" sodipodi:docname="Monty-SwitchfromGoat2a.svg">
  <defs id="defs4">
    <linearGradient id="linearGradient2331">
      <stop id="stop2333" offset="0" style="stop-color:#d82100;stop-opacity:1;"/>
      <stop id="stop2335" offset="1" style="stop-color:#d82100;stop-opacity:0;"/>
    </linearGradient>
    <linearGradient y2="65.581429" x2="113.08676" y1="65.066559" x1="112.13223" gradientUnits="userSpaceOnUse" id="linearGradient1376" xlink:href="#linearGradient14891" inkscape:collect="always"/>
    <linearGradient id="linearGradient14915">
      <stop style="stop-color:#cc4f00;stop-opacity:1;" offset="0" id="stop14917"/>
      <stop style="stop-color:#984815;stop-opacity:1;" offset="1" id="stop14919"/>
    </linearGradient>
    <linearGradient id="linearGradient14905">
      <stop style="stop-color:#c3c3c3;stop-opacity:1;" offset="0" id="stop14907"/>
      <stop id="stop14913" offset="0.55555558" style="stop-color:black;stop-opacity:1;"/>
      <stop style="stop-color:black;stop-opacity:1;" offset="1" id="stop14909"/>
    </linearGradient>
    <linearGradient id="linearGradient14891">
      <stop style="stop-color:white;stop-opacity:1;" offset="0" id="stop14893"/>
      <stop style="stop-color:#e2e2e2;stop-opacity:1;" offset="1" id="stop14895"/>
    </linearGradient>
    <linearGradient id="linearGradient6420">
      <stop style="stop-color:#9bd9ff;stop-opacity:1;" offset="0" id="stop6422"/>
      <stop style="stop-color:#1da5ff;stop-opacity:1;" offset="1" id="stop6424"/>
    </linearGradient>
    <linearGradient inkscape:collect="always" xlink:href="#linearGradient14915" id="linearGradient14975" gradientUnits="userSpaceOnUse" gradientTransform="translate(222.1796,419.7149)" x1="97.191101" y1="72.271553" x2="105.49163" y2="87.081856"/>
    <linearGradient inkscape:collect="always" xlink:href="#linearGradient14891" id="linearGradient14977" gradientUnits="userSpaceOnUse" x1="112.13223" y1="65.066559" x2="113.08676" y2="65.581429"/>
    <linearGradient inkscape:collect="always" xlink:href="#linearGradient6420" id="linearGradient14991" gradientUnits="userSpaceOnUse" x1="345.88135" y1="505.42252" x2="376.26169" y2="505.42252" gradientTransform="translate(0.772106,0.855522)"/>
    <linearGradient inkscape:collect="always" xlink:href="#linearGradient6420" id="linearGradient15001" gradientUnits="userSpaceOnUse" gradientTransform="translate(2.022141,3.459846)" x1="251.5558" y1="494.82321" x2="291.55579" y2="534.82318"/>
    <linearGradient inkscape:collect="always" xlink:href="#linearGradient6420" id="linearGradient15005" gradientUnits="userSpaceOnUse" gradientTransform="translate(435.1338,3.459846)" x1="-236.55583" y1="494.82321" x2="-196.55582" y2="534.82318"/>
    <linearGradient inkscape:collect="always" xlink:href="#linearGradient6420" id="linearGradient15443" gradientUnits="userSpaceOnUse" gradientTransform="translate(435.1338,3.459846)" x1="-236.55583" y1="494.82321" x2="-196.55582" y2="534.82318"/>
    <linearGradient inkscape:collect="always" xlink:href="#linearGradient6420" id="linearGradient15445" gradientUnits="userSpaceOnUse" gradientTransform="translate(2.022141,3.459846)" x1="251.5558" y1="494.82321" x2="291.55579" y2="534.82318"/>
    <linearGradient inkscape:collect="always" xlink:href="#linearGradient6420" id="linearGradient15447" gradientUnits="userSpaceOnUse" gradientTransform="translate(0.772106,0.855522)" x1="345.88135" y1="505.42252" x2="376.26169" y2="505.42252"/>
    <linearGradient inkscape:collect="always" xlink:href="#linearGradient14915" id="linearGradient15449" gradientUnits="userSpaceOnUse" gradientTransform="translate(222.1796,419.7149)" x1="97.191101" y1="72.271553" x2="105.49163" y2="87.081856"/>
    <linearGradient inkscape:collect="always" xlink:href="#linearGradient14891" id="linearGradient15451" gradientUnits="userSpaceOnUse" x1="112.13223" y1="65.066559" x2="113.08676" y2="65.581429"/>
    <linearGradient y2="505.42252" x2="376.26169" y1="505.42252" x1="345.88135" gradientTransform="translate(1.544202,2.852877)" gradientUnits="userSpaceOnUse" id="linearGradient1346" xlink:href="#linearGradient6420" inkscape:collect="always"/>
    <linearGradient y2="534.82318" x2="291.55579" y1="494.82321" x1="251.5558" gradientTransform="matrix(1.000014,0.000000,0.000000,1.000000,31.22869,4.452202)" gradientUnits="userSpaceOnUse" id="linearGradient1351" xlink:href="#linearGradient6420" inkscape:collect="always"/>
    <linearGradient y2="505.42252" x2="376.26169" y1="505.42252" x1="345.88135" gradientTransform="matrix(0.999964,0.000000,0.000000,0.999945,-108.4601,1.880820)" gradientUnits="userSpaceOnUse" id="linearGradient1412" xlink:href="#linearGradient6420" inkscape:collect="always"/>
  </defs>
  <sodipodi:namedview id="base" pagecolor="#ffffff" bordercolor="#666666" borderopacity="1.0" gridtolerance="10000" guidetolerance="10" objecttolerance="10" inkscape:pageopacity="0.0" inkscape:pageshadow="2" inkscape:zoom="4.0000000" inkscape:cx="21.798706" inkscape:cy="40.903442" inkscape:document-units="px" inkscape:current-layer="layer1" width="180px" height="100px" units="px" inkscape:window-width="1024" inkscape:window-height="749" inkscape:window-x="-4" inkscape:window-y="-4" showguides="true" inkscape:guide-bbox="true"/>
  <metadata id="metadata7">
    <rdf:RDF id="RDF5936">
      <cc:Work rdf:about="" id="Work5938">
        <dc:format id="format5940">image/svg+xml</dc:format>
        <dc:type rdf:resource="http://purl.org/dc/dcmitype/StillImage" id="type5942"/>
      </cc:Work>
    </rdf:RDF>
  </metadata>
  <g style="display:inline" inkscape:label="Layer 1" inkscape:groupmode="layer" id="layer1" transform="translate(-198.5780,-458.2754)">
    <rect y="460.23120" x="283.74380" height="78.088425" width="38.088966" id="rect2828" style="fill:url(#linearGradient1351);fill-opacity:1.0000000;fill-rule:nonzero;stroke:#000000;stroke-width:1.9115860;stroke-miterlimit:4.0000000;stroke-opacity:1.0000000"/>
    <g transform="translate(-26.59951,2.668285)" id="g1367">
      <path style="fill:#f6f6f6;fill-opacity:1.0000000;fill-rule:evenodd;stroke:#7f7f7f;stroke-width:1.0000000px;stroke-linecap:butt;stroke-linejoin:miter;stroke-opacity:1.0000000" d="M 332.95900,485.88635 C 334.20872,479.63776 324.83583,479.01290 324.83583,479.01290 C 324.83583,479.01290 338.42651,475.21168 337.33301,488.17750 C 337.10945,490.82833 332.19918,489.68546 332.95900,485.88635 z " id="path14903" sodipodi:nodetypes="csss"/>
      <path sodipodi:nodetypes="cccccccccsccccccc" style="fill:#7f7f7f;fill-opacity:1.0000000;fill-rule:evenodd;stroke:#7f7f7f;stroke-width:1.0000000px;stroke-linecap:butt;stroke-linejoin:miter;stroke-opacity:1.0000000" d="M 330.26550,484.27655 C 330.02749,484.33925 329.77240,484.57698 329.51550,484.77655 C 328.69629,485.41298 329.47247,485.97078 329.82800,486.33905 C 330.40808,486.93991 330.04222,487.05066 331.20300,486.87030 C 331.34946,486.35470 331.09693,485.51511 330.85925,484.77655 C 330.71432,484.32617 330.50351,484.21384 330.26550,484.27655 z M 332.54675,487.24530 C 325.88159,488.07844 324.22280,494.11012 319.64050,495.15155 C 315.05820,496.19297 311.79133,495.75171 311.74809,495.77655 L 311.73471,512.21033 C 311.73471,512.20502 315.03509,512.57718 317.32624,512.57718 C 317.32624,512.57718 318.45200,528.16101 317.98776,534.24712 C 320.85708,534.24712 319.20247,534.20813 322.10573,534.20813 C 320.56615,528.91958 321.72407,511.18223 322.76550,508.68280 C 323.80693,506.18336 329.13469,495.36489 330.89050,495.55780 C 332.08271,495.68879 332.32285,507.21580 338.36315,503.46664 C 343.28020,500.41469 339.21192,486.41215 332.54675,487.24530 z " id="path14002"/>
      <path sodipodi:type="arc" style="fill:url(#linearGradient1376);fill-opacity:1.0000000;fill-rule:nonzero;stroke:#7f7f7f;stroke-width:0.50000000;stroke-miterlimit:4.0000000;stroke-opacity:1.0000000" id="path14004" sodipodi:cx="112.78703" sodipodi:cy="65.226349" sodipodi:rx="1.7704335" sodipodi:ry="1.8745767" d="M 114.55747 65.226349 A 1.7704335 1.8745767 0 1 1  111.01660,65.226349 A 1.7704335 1.8745767 0 1 1  114.55747 65.226349 z" transform="translate(224.0253,429.1998)"/>
      <path sodipodi:type="arc" style="fill:#7f7f7f;fill-opacity:1.0000000;fill-rule:nonzero;stroke:none;stroke-width:0.50000000;stroke-miterlimit:4.0000000;stroke-opacity:1.0000000" id="path14901" sodipodi:cx="105.80944" sodipodi:cy="86.888123" sodipodi:rx="0.41657260" sodipodi:ry="0.62485892" d="M 106.22601 86.888123 A 0.41657260 0.62485892 0 1 1  105.39287,86.888123 A 0.41657260 0.62485892 0 1 1  106.22601 86.888123 z" transform="matrix(1.800406,0.000000,0.000000,1.200271,146.6660,390.5077)"/>
      <path style="fill:#7f7f7f;fill-opacity:1.0000000;fill-rule:evenodd;stroke:none;stroke-width:1.0000000px;stroke-linecap:butt;stroke-linejoin:miter;stroke-opacity:1.0000000" d="M 334.29001,503.82491 C 334.76206,504.33880 335.28480,505.06752 335.29890,505.77165 C 335.14225,506.67713 334.19512,507.21643 334.05792,508.12906 C 333.85908,509.18258 334.66043,510.34776 335.77085,510.47259 C 336.14844,510.47662 336.40770,509.92650 336.09017,509.68540 C 335.78776,509.44720 335.29368,509.51470 335.08000,509.15751 C 334.70121,508.62625 334.87075,507.86511 335.32624,507.43052 C 335.83144,506.78274 336.38292,506.05652 336.93308,505.21026 C 337.62534,504.18262 337.84425,503.84219 338.58770,502.96133 C 337.38860,503.61081 336.54174,504.13089 336.22516,504.06162 C 335.76099,504.00302 334.41744,503.83413 334.29001,503.82491 z " id="path6721" sodipodi:nodetypes="ccccccccccc"/>
    </g>
    <path transform="matrix(0.638353,0.000000,0.000000,0.619578,139.6001,211.4953)" d="M 238.54002 466.09964 A 3.9163287 4.0350051 0 1 1  230.70736,466.09964 A 3.9163287 4.0350051 0 1 1  238.54002 466.09964 z" sodipodi:ry="4.0350051" sodipodi:rx="3.9163287" sodipodi:cy="466.09964" sodipodi:cx="234.62369" id="path2830" style="fill:#000000;fill-opacity:1.0000000;fill-rule:nonzero;stroke:none;stroke-width:2.0000000;stroke-miterlimit:4.0000000;stroke-opacity:1.0000000" sodipodi:type="arc"/>
    <rect style="fill:#ff0012;fill-opacity:1.0000000;fill-rule:nonzero;stroke:#ff0012;stroke-width:0.77618390;stroke-linecap:round;stroke-miterlimit:4.0000000;stroke-opacity:1.0000000" id="rect1368" width="14.164032" height="0.56601900" x="212.35564" y="504.44766"/>
    <g style="fill:#ff0012;fill-opacity:1.0000000;fill-rule:nonzero" id="g2282">
      <g transform="matrix(0.514469,0.000000,0.000000,0.514469,198.5465,459.8237)" style="stroke-opacity:1.0000000;stroke:#841f23;fill-opacity:1.0000000;fill:#ff0012;stroke-width:2.2500000;stroke-miterlimit:4.0000000;fill-rule:nonzero" id="g2943">
        <path style="fill:#ff0012;stroke-linejoin:miter;stroke-linecap:butt;fill-rule:nonzero;fill-opacity:1.0000000;stroke:#841f23;stroke-opacity:1.0000000" d="M 40.629089,128.07693 L 11.244604,128.07693" id="path2149"/>
        <g style="fill:#ff0012;fill-opacity:1.0000000;stroke:#841f23;stroke-opacity:1.0000000;fill-rule:nonzero" id="g2921">
          <path id="path1364" style="fill:#ff0012;stroke-linejoin:miter;stroke-linecap:butt;fill-rule:nonzero;fill-opacity:1.0000000;stroke:#841f23;stroke-opacity:1.0000000" d="M 17.291229,107.60326 L 18.352042,104.68603 L 15.646972,102.80309 L 11.562847,102.72353 L 10.714198,106.75462 L 17.291229,107.60326 z M 27.899349,88.826894 L 20.473666,107.60326 L 17.291231,107.60326 L 25.565562,85.644458" sodipodi:nodetypes="cccccccccc" inkscape:tile-w="17.866907" inkscape:tile-h="22.428396" inkscape:tile-cx="19.147652" inkscape:tile-cy="96.889062"/>
          <path style="fill:#ff0012;stroke-linejoin:miter;stroke-linecap:butt;fill-rule:nonzero;fill-opacity:1.0000000;stroke:#841f23;stroke-opacity:1.0000000" d="M 40.841252,85.962701 L 25.565562,85.962701 M 24.398669,88.932974 L 40.416927,88.932974 L 40.416927,91.160679 L 36.598005,91.160679 L 36.598005,93.176221 L 41.159495,93.176221" id="path2145" sodipodi:nodetypes="cccccccc"/>
          <path style="fill:#ff0012;stroke-linejoin:miter;stroke-linecap:butt;fill-rule:nonzero;fill-opacity:1.0000000;stroke:#841f23;stroke-opacity:1.0000000" d="M 40.841252,108.23974 L 17.185150,108.13367 L 10.820280,127.33436 L 10.820280,130.72896 L 11.716257,132.09710 L 41.053414,132.09710" id="path2147" sodipodi:nodetypes="cccccc"/>
          <path style="stroke-linejoin:miter;stroke-linecap:butt;fill-rule:nonzero;fill-opacity:1.0000000;fill:#3c3c3c;stroke:#841f23;stroke-opacity:1.0000000" d="M 21.640559,132.74450 L 21.640559,133.59315 L 19.518936,133.59315 L 19.518936,140.06410 L 18.801494,141.30674 L 13.366228,141.30674 L 12.426661,140.36718 L 12.426661,132.63842 L 21.640559,132.74450 z " id="path2153"/>
          <path sodipodi:type="arc" style="stroke-width:1.5550014;stroke-miterlimit:4.0000000;stroke-dasharray:none;fill-rule:nonzero;stroke-opacity:1.0000000;stroke:#841f23;fill-opacity:1.0000000;fill:#ffffff" id="path2919" sodipodi:cx="20.526707" sodipodi:cy="124.31104" sodipodi:rx="2.5989888" sodipodi:ry="2.7050698" d="M 23.125695 124.31104 A 2.5989888 2.7050698 0 1 1  17.927718,124.31104 A 2.5989888 2.7050698 0 1 1  23.125695 124.31104 z" transform="translate(-1.060812,-0.742568)"/>
          <path style="fill:#dedede;stroke-linejoin:miter;stroke-linecap:butt;fill-rule:nonzero;fill-opacity:1.0000000;stroke:#841f23;stroke-opacity:1.0000000" d="M 41.053414,126.37963 L 35.537193,126.37963 L 35.537193,121.60598 L 41.265576,121.60598" id="path2151"/>
        </g>
      </g>
      <g style="stroke-miterlimit:4.0000000;stroke-width:2.2500000;fill:#ff0012;fill-opacity:1.0000000;stroke:#841f23;stroke-opacity:1.0000000;fill-rule:nonzero" id="g2953" transform="matrix(-0.514469,0.000000,0.000000,0.514469,240.1330,459.8315)">
        <path style="stroke-opacity:1.0000000;stroke:#841f23;fill-opacity:1.0000000;fill-rule:nonzero;stroke-linecap:butt;stroke-linejoin:miter;fill:#ff0012" d="M 40.629089,128.07693 L 11.244604,128.07693" id="path2955"/>
        <g style="stroke-opacity:1.0000000;stroke:#841f23;fill-opacity:1.0000000;fill:#ff0012;fill-rule:nonzero" id="g2957">
          <path id="path2959" style="stroke-opacity:1.0000000;stroke:#841f23;fill-opacity:1.0000000;fill-rule:nonzero;stroke-linecap:butt;stroke-linejoin:miter;fill:#ff0012" d="M 17.291229,107.60326 L 18.352042,104.68603 L 15.646972,102.80309 L 11.562847,102.72353 L 10.714198,106.75462 L 17.291229,107.60326 z M 27.793267,88.826894 L 20.473666,107.60326 L 17.291231,107.60326 L 25.565562,85.750539" sodipodi:nodetypes="cccccccccc" inkscape:tile-w="17.866907" inkscape:tile-h="22.428396" inkscape:tile-cx="19.147652" inkscape:tile-cy="96.889062"/>
          <path style="stroke-opacity:1.0000000;stroke:#841f23;fill-opacity:1.0000000;fill-rule:nonzero;stroke-linecap:butt;stroke-linejoin:miter;fill:#ff0012" d="M 40.841252,85.962701 L 25.565562,85.962701 M 24.398669,88.932974 L 40.416927,88.932974 L 40.416927,91.160679 L 36.598005,91.160679 L 36.598005,93.176221 L 41.159495,93.176221" id="path2961" sodipodi:nodetypes="cccccccc"/>
          <path style="stroke-opacity:1.0000000;stroke:#841f23;fill-opacity:1.0000000;fill-rule:nonzero;stroke-linecap:butt;stroke-linejoin:miter;fill:#ff0012" d="M 40.841252,108.23974 L 17.185150,108.13367 L 10.820280,127.33436 L 10.820280,130.72896 L 11.716257,132.09710 L 41.053414,132.09710" id="path2963" sodipodi:nodetypes="cccccc"/>
          <path style="fill:#dedede;stroke-linejoin:miter;stroke-linecap:butt;fill-rule:nonzero;fill-opacity:1.0000000;stroke:#841f23;stroke-opacity:1.0000000" d="M 41.053414,126.37963 L 35.537193,126.37963 L 35.537193,121.60598 L 41.265576,121.60598" id="path2965"/>
          <path style="stroke-opacity:1.0000000;stroke:#841f23;fill:#3c3c3c;fill-opacity:1.0000000;fill-rule:nonzero;stroke-linecap:butt;stroke-linejoin:miter" d="M 21.640559,132.74450 L 21.640559,133.59315 L 19.518936,133.59315 L 19.518936,140.06410 L 18.801494,141.30674 L 13.366228,141.30674 L 12.426661,140.36718 L 12.426661,132.63842 L 21.640559,132.74450 z " id="path2967"/>
          <path sodipodi:type="arc" style="stroke-width:1.5550014;stroke-miterlimit:4.0000000;stroke-dasharray:none;fill-rule:nonzero;fill:#ffffff;fill-opacity:1.0000000;stroke:#841f23;stroke-opacity:1.0000000" id="path2969" sodipodi:cx="20.526707" sodipodi:cy="124.31104" sodipodi:rx="2.5989888" sodipodi:ry="2.7050698" d="M 23.125695 124.31104 A 2.5989888 2.7050698 0 1 1  17.927718,124.31104 A 2.5989888 2.7050698 0 1 1  23.125695 124.31104 z" transform="translate(-1.060812,-0.742568)"/>
        </g>
      </g>
      <path sodipodi:type="arc" style="fill-rule:nonzero;fill:#841f23;fill-opacity:1.0000000;stroke:#841f23;stroke-opacity:1.0000000;stroke-width:2.2500000;stroke-miterlimit:4.0000000" id="path2993" sodipodi:cx="53.783154" sodipodi:cy="107.92150" sodipodi:rx="7.2135196" sodipodi:ry="7.2135196" d="M 47.543881,104.30123 A 7.2135196,7.2135196 0 0 1 59.984122,104.23601" transform="matrix(0.546308,0.000000,0.000000,0.546308,195.4151,458.4342)" sodipodi:start="3.6673551" sodipodi:end="5.7469368" sodipodi:open="true"/>
    </g>
    <path id="path14935" d="M 200.30405,460.23177 L 200.30405,538.31966 L 238.39053,538.31966 L 238.39053,460.23177 L 200.30405,460.23177 z " style="fill:none;fill-opacity:1.0000000;fill-rule:nonzero;stroke:#000000;stroke-width:1.9121031;stroke-miterlimit:4.0000000;stroke-opacity:1.0000000"/>
    <path id="rect2852" d="M 238.36455,460.23111 L 238.36455,538.32053 L 266.83227,554.31964 L 266.83227,464.23089 L 238.36455,460.23111 z " style="fill:url(#linearGradient1412);fill-opacity:1.0000000;fill-rule:nonzero;stroke:#000000;stroke-width:1.9114853;stroke-miterlimit:4.0000000;stroke-opacity:1.0000000"/>
    <path transform="matrix(0.419360,0.000000,0.000000,0.693927,163.4793,182.5459)" d="M 238.54002 466.09964 A 3.9163287 4.0350051 0 1 1  230.70736,466.09964 A 3.9163287 4.0350051 0 1 1  238.54002 466.09964 z" sodipodi:ry="4.0350051" sodipodi:rx="3.9163287" sodipodi:cy="466.09964" sodipodi:cx="234.62369" id="path7665" style="fill:#000000;fill-opacity:1.0000000;fill-rule:nonzero;stroke:none;stroke-width:2.0000000;stroke-miterlimit:4.0000000;stroke-opacity:1.0000000" sodipodi:type="arc"/>
    <path style="fill:#000000" d="M 220.59107,548.74201 C 220.60523,548.72285 220.68939,548.60484 220.77811,548.47981 C 221.11108,548.01040 221.55043,547.52979 221.99716,547.14618 C 222.30387,546.88281 222.34716,546.85543 222.42593,546.87515 C 222.48122,546.88898 223.33981,546.37409 223.35365,546.31879 C 223.37335,546.24005 223.41788,546.21474 223.79467,546.06822 C 224.35311,545.85104 224.97700,545.69276 225.57369,545.61687 C 225.74157,545.59552 225.88083,545.57031 225.88321,545.56083 L 219.49800,540.92534 C 219.49800,540.92534 220.57255,548.76708 220.59107,548.74201 z " id="path1363" sodipodi:nodetypes="cccccccccc"/>
    <path sodipodi:nodetypes="cc" id="path2168" d="M 281.24928,553.54119 C 265.85926,567.51756 232.34565,565.48444 221.12685,543.31880" style="fill:none;fill-rule:evenodd;stroke:#000000;stroke-width:1.2230963;stroke-linecap:butt;stroke-linejoin:miter;stroke-miterlimit:4.0000000;stroke-opacity:1.0000000"/>
    <g transform="matrix(0.999845,0.000000,0.000000,1.000000,17.96435,-4.719301)" id="g3065" style="display:inline">
      <path sodipodi:nodetypes="ccccccccc" id="path1495" d="M 272.30482,547.41293 C 270.82707,547.46253 270.34811,547.52638 268.86133,548.26539 C 267.37455,549.07223 266.48579,550.62486 265.75929,552.44114 C 264.70912,555.95892 265.45093,560.79690 267.91519,564.38103 C 268.87031,565.94262 271.20014,568.41941 273.17022,568.13897 C 275.26192,568.14016 276.52520,566.77080 277.79185,564.61806 C 279.83054,561.29292 280.37818,555.75456 279.34907,552.34843 C 278.53318,550.34993 277.47845,549.11242 275.88141,548.13217 C 274.37154,547.48540 273.87131,547.37857 272.30482,547.41293 z " style="fill:#a55200;fill-opacity:1.0000000;fill-rule:evenodd;stroke:#000000;stroke-width:0.86241734;stroke-linecap:butt;stroke-linejoin:miter;stroke-miterlimit:4.0000000;stroke-opacity:1.0000000;display:inline"/>
      <path sodipodi:nodetypes="cc" id="path1497" d="M 267.68000,555.30246 C 268.23977,553.95995 269.72686,554.11933 271.20505,554.14060" style="fill:none;fill-rule:evenodd;stroke:#000000;stroke-width:0.80783397;stroke-linecap:butt;stroke-linejoin:miter;stroke-miterlimit:4.0000000;stroke-opacity:1.0000000;display:inline"/>
      <path sodipodi:nodetypes="cc" id="path1499" d="M 274.04319,554.17741 C 275.44702,554.14988 277.03331,553.91749 277.65714,554.92534" style="fill:none;fill-rule:evenodd;stroke:#000000;stroke-width:0.80783397;stroke-linecap:butt;stroke-linejoin:miter;stroke-miterlimit:4.0000000;stroke-opacity:1.0000000;display:inline"/>
      <path sodipodi:nodetypes="ccccs" id="path1501" d="M 269.68174,555.55875 C 270.33676,555.68222 271.38377,555.72003 271.26394,556.83976 C 271.40157,558.02901 270.32849,558.39299 269.40511,558.26445 C 268.35713,558.31999 267.61166,557.20584 268.02862,556.45263 C 268.20095,556.14486 269.39436,555.50457 269.68174,555.55875 z " style="fill:#ffffff;fill-opacity:1.0000000;fill-rule:evenodd;stroke:#000000;stroke-width:0.88478345;stroke-linecap:butt;stroke-linejoin:miter;stroke-miterlimit:4.0000000;stroke-opacity:1.0000000;display:inline"/>
      <path sodipodi:nodetypes="ccccccc" id="path1505" d="M 268.54238,560.36283 C 269.75976,560.34783 276.09176,560.19070 277.14378,560.37193 C 276.48626,562.55825 276.90329,561.42241 276.43407,562.57633 C 275.92776,563.55117 276.15430,563.53492 275.40553,564.27062 C 274.59284,565.12505 273.06248,565.41100 271.98107,565.00072 C 270.82189,564.79941 269.95480,563.83048 269.35415,562.80204 C 268.96467,562.04031 268.80749,561.17728 268.54238,560.36283 z " style="fill:#ffffff;fill-opacity:0.99607843;fill-rule:evenodd;stroke:#000000;stroke-width:0.94975072;stroke-linecap:butt;stroke-linejoin:miter;stroke-miterlimit:4.0000000;stroke-opacity:1.0000000;display:inline"/>
      <path id="path1511" d="M 269.56476,562.67395 C 271.77957,562.68876 273.99438,562.70357 276.20918,562.71839" style="fill:none;fill-rule:evenodd;stroke:#000000;stroke-width:1.0261674;stroke-linecap:butt;stroke-linejoin:miter;stroke-miterlimit:4.0000000;stroke-opacity:1.0000000;display:inline"/>
      <path id="path1513" d="M 269.84406,559.17904 C 270.93127,559.35992 270.52698,559.70150 272.77458,560.44982 C 274.93281,559.84123 274.80592,559.38487 275.70767,559.03865" style="fill:none;fill-rule:evenodd;stroke:#000000;stroke-width:0.87333399;stroke-linecap:butt;stroke-linejoin:miter;stroke-miterlimit:4.0000000;stroke-opacity:1.0000000;display:inline" sodipodi:nodetypes="ccc"/>
      <path sodipodi:nodetypes="ccccc" id="path1503" d="M 273.95942,556.03338 C 274.12437,556.74824 273.49758,558.23457 274.86085,558.04269 C 275.71448,558.16505 276.69655,558.07350 277.11754,556.98284 C 277.34802,555.85199 276.50462,555.86692 275.33662,555.54680 C 274.81291,555.48676 274.22410,555.53913 273.95942,556.03338 z " style="fill:#ffffff;fill-opacity:1.0000000;fill-rule:evenodd;stroke:#000000;stroke-width:0.86092609;stroke-linecap:butt;stroke-linejoin:miter;stroke-miterlimit:4.0000000;stroke-opacity:1.0000000;display:inline"/>
      <path sodipodi:type="arc" style="fill:#000000;fill-opacity:1.0000000;stroke:#000000;stroke-width:1.7500000;stroke-linecap:round;stroke-miterlimit:4.0000000;stroke-opacity:1.0000000;display:inline" id="path4802" sodipodi:cx="260.26483" sodipodi:cy="191.91725" sodipodi:rx="9.1186066" sodipodi:ry="7.0312152" d="M 269.38344 191.91725 A 9.1186066 7.0312152 0 1 1  251.14622,191.91725 A 9.1186066 7.0312152 0 1 1  269.38344 191.91725 z" transform="matrix(7.746080e-2,0.000000,0.000000,9.918411e-2,254.6797,537.5035)"/>
      <path sodipodi:type="arc" style="fill:#000000;fill-opacity:1.0000000;stroke:#000000;stroke-width:1.7500000;stroke-linecap:round;stroke-miterlimit:4.0000000;stroke-opacity:1.0000000;display:inline" id="path5562" sodipodi:cx="260.26483" sodipodi:cy="191.91725" sodipodi:rx="9.1186066" sodipodi:ry="7.0312152" d="M 269.38344 191.91725 A 9.1186066 7.0312152 0 1 1  251.14622,191.91725 A 9.1186066 7.0312152 0 1 1  269.38344 191.91725 z" transform="matrix(7.746080e-2,0.000000,0.000000,9.918411e-2,248.7563,537.6078)"/>
    </g>
    <rect style="stroke-opacity:1.0000000;stroke-miterlimit:4.0000000;stroke-linecap:round;stroke-width:0.89042026;stroke:#ffffff;fill-rule:nonzero;fill-opacity:1.0000000;fill:#ffffff" id="rect4404" width="2.6143475" height="2.1256688" x="213.74422" y="506.60123"/>
    <rect style="display:inline;stroke-opacity:1.0000000;stroke-miterlimit:4.0000000;stroke-linecap:round;stroke-width:0.89042026;stroke:#ffffff;fill-rule:nonzero;fill-opacity:1.0000000;fill:#ffffff" id="rect5166" width="2.6143475" height="2.1256688" x="222.32866" y="506.60815"/>
    <path id="path1456" d="M 204.62654,525.68701 L 234.99284,525.68701" style="fill:none;fill-rule:evenodd;stroke:#841f23;stroke-width:1.2848911;stroke-linecap:butt;stroke-linejoin:miter;stroke-miterlimit:4.0000000;stroke-opacity:1.0000000"/>
  </g>
</svg>